<?xml version="1.0" standalone="no"?><!DOCTYPE svg PUBLIC "-//W3C//DTD SVG 1.1//EN" "http://www.w3.org/Graphics/SVG/1.1/DTD/svg11.dtd"><svg t="1710129328764" class="icon" viewBox="0 0 1024 1024" version="1.1" xmlns="http://www.w3.org/2000/svg" p-id="32635" width="128" height="128" xmlns:xlink="http://www.w3.org/1999/xlink"><path d="M770.56 725.447111l-40.675556 40.732445-101.774222-101.774223 40.675556-40.732444 101.774222 101.774222" fill="#B7BDBD" p-id="32636"></path><path d="M666.737778 164.807111a357.944889 357.944889 0 0 1 0 506.368c-69.916444 69.916444-161.564444 90.510222-253.212445 90.510222s-183.296-20.536889-253.212444-90.510222a358.058667 358.058667 0 1 1 506.424889-506.368" fill="#E8E8E5" p-id="32637"></path><path d="M666.737778 656.782222A358.115556 358.115556 0 0 1 55.580444 410.794667a358.115556 358.115556 0 1 0 715.889778 0 356.977778 356.977778 0 0 1-104.732444 245.987555" fill="#B7BDBD" p-id="32638"></path><path d="M614.855111 216.746667a284.615111 284.615111 0 1 1-402.659555 402.545777 284.558222 284.558222 0 0 1 0-402.545777 284.558222 284.558222 0 0 1 402.659555 0" fill="#677EAB" p-id="32639"></path><path d="M413.525333 187.676444c141.937778 0 257.024 109.056 257.024 243.655112s-115.029333 243.541333-257.024 243.541333c-141.880889 0-256.967111-108.999111-256.967111-243.541333s115.029333-243.655111 256.967111-243.655112" fill="#94AAC9" p-id="32640"></path><path d="M301.340444 616.220444a226.076444 226.076444 0 0 1-51.2-36.295111c-89.315556-84.423111-89.315556-221.297778-0.056888-305.664 44.657778-42.211556 103.139556-63.260444 161.678222-63.260444s117.020444 21.048889 161.678222 63.260444c15.530667 14.734222 28.216889 31.118222 38.4 48.469334A240.071111 240.071111 0 0 0 501.134222 295.822222c-58.368 0-116.792889 21.048889-161.393778 63.146667-73.728 69.745778-86.414222 175.104-38.4 257.251555" fill="#AEC0D6" p-id="32641"></path><path d="M693.248 688.696889c-31.857778 33.166222-48.128 67.584 68.209778 183.864889s150.755556 100.010667 183.864889 68.209778c31.744-33.052444 48.128-67.527111-68.266667-183.808-116.337778-116.280889-150.755556-99.953778-183.808-68.266667" fill="#524631" p-id="32642"></path><path d="M890.197333 951.921778c-25.713778-0.056889-62.407111-20.593778-125.496889-84.593778-74.126222-75.093333-89.088-113.208889-81.578666-139.889778 6.087111 25.201778 28.899556 59.904 81.578666 113.265778 63.089778 64 99.783111 84.536889 125.496889 84.536889 17.578667 0 29.980444-9.557333 42.211556-21.447111 1.479111-1.536 2.958222-2.275556 4.152889-2.275556 5.916444 0 7.964444 16.156444-4.152889 28.899556-12.174222 11.889778-24.632889 21.504-42.211556 21.504" fill="#4A3F2A" p-id="32643"></path><path d="M936.846222 935.708444c-15.303111 15.303111-32.995556 22.357333-39.537778 15.701334-6.599111-6.542222 0.455111-24.291556 15.701334-39.537778s32.995556-22.300444 39.537778-15.701333c6.599111 6.599111-0.512 24.291556-15.701334 39.537777" fill="#403321" p-id="32644"></path></svg>